{
	"asset":{
		"generator":"Khronos glTF Blender I/O v3.6.27",
		"version":"2.0"
	},
	"extensionsUsed":[
		"KHR_materials_specular",
		"KHR_materials_ior"
	],
	"scene":0,
	"scenes":[
		{
			"name":"Scene",
			"nodes":[
				0,
				1,
				2
			]
		}
	],
	"nodes":[
		{
			"mesh":0,
			"name":"faro"
		},
		{
			"mesh":1,
			"name":"Cube",
			"translation":[
				0,
				0,
				0.23552608489990234
			]
		},
		{
			"mesh":2,
			"name":"Plane"
		}
	],
	"materials":[
		{
			"doubleSided":true,
			"name":"blanco",
			"pbrMetallicRoughness":{
				"baseColorFactor":[
					0.9093546271324158,
					1,
					0.8884509801864624,
					1
				],
				"metallicFactor":0,
				"roughnessFactor":0.5
			}
		},
		{
			"doubleSided":true,
			"name":"pinturaFaro",
			"pbrMetallicRoughness":{
				"baseColorFactor":[
					0.8000000715255737,
					0.06536176055669785,
					0.05133732408285141,
					1
				],
				"metallicFactor":0,
				"roughnessFactor":0.5
			}
		},
		{
			"doubleSided":true,
			"emissiveFactor":[
				1,
				0.871109664440155,
				0.12397444993257523
			],
			"extensions":{
				"KHR_materials_specular":{
					"specularColorFactor":[
						0.3372114181525218,
						0.3372114181525218,
						0.3372114181525218
					]
				},
				"KHR_materials_ior":{
					"ior":1.4500000476837158
				}
			},
			"name":"luzFaro",
			"pbrMetallicRoughness":{
				"baseColorFactor":[
					0.800000011920929,
					0.800000011920929,
					0.800000011920929,
					1
				],
				"metallicFactor":0,
				"roughnessFactor":0.5
			}
		},
		{
			"doubleSided":true,
			"name":"teja",
			"pbrMetallicRoughness":{
				"baseColorFactor":[
					0.007998601533472538,
					0.003568975254893303,
					0.053591325879096985,
					1
				],
				"metallicFactor":0,
				"roughnessFactor":0.5
			}
		},
		{
			"doubleSided":true,
			"name":"Marcos",
			"pbrMetallicRoughness":{
				"baseColorFactor":[
					0.7703106999397278,
					0.8000000715255737,
					0.5261140465736389,
					1
				],
				"metallicFactor":0,
				"roughnessFactor":0.5
			}
		},
		{
			"doubleSided":true,
			"name":"Material.001",
			"pbrMetallicRoughness":{
				"baseColorFactor":[
					0.09834131598472595,
					0.8000000715255737,
					0.06963644176721573,
					1
				],
				"metallicFactor":0,
				"roughnessFactor":0.5
			}
		}
	],
	"meshes":[
		{
			"name":"Cylinder",
			"primitives":[
				{
					"attributes":{
						"POSITION":0,
						"NORMAL":1,
						"TEXCOORD_0":2
					},
					"indices":3,
					"material":0
				},
				{
					"attributes":{
						"POSITION":4,
						"NORMAL":5,
						"TEXCOORD_0":6
					},
					"indices":7,
					"material":1
				},
				{
					"attributes":{
						"POSITION":8,
						"NORMAL":9,
						"TEXCOORD_0":10
					},
					"indices":11,
					"material":2
				}
			]
		},
		{
			"name":"Cube.003",
			"primitives":[
				{
					"attributes":{
						"POSITION":12,
						"NORMAL":13,
						"TEXCOORD_0":14
					},
					"indices":15,
					"material":3
				},
				{
					"attributes":{
						"POSITION":16,
						"NORMAL":17,
						"TEXCOORD_0":18
					},
					"indices":19,
					"material":0
				},
				{
					"attributes":{
						"POSITION":20,
						"NORMAL":21,
						"TEXCOORD_0":22
					},
					"indices":23,
					"material":4
				}
			]
		},
		{
			"name":"Plane",
			"primitives":[
				{
					"attributes":{
						"POSITION":24,
						"NORMAL":25,
						"TEXCOORD_0":26
					},
					"indices":27,
					"material":5
				}
			]
		}
	],
	"accessors":[
		{
			"bufferView":0,
			"componentType":5126,
			"count":636,
			"max":[
				1.9102410078048706,
				7.841524600982666,
				1.174976110458374
			],
			"min":[
				-1.969274878501892,
				-1.4476990699768066,
				-2.7045395374298096
			],
			"type":"VEC3"
		},
		{
			"bufferView":1,
			"componentType":5126,
			"count":636,
			"type":"VEC3"
		},
		{
			"bufferView":2,
			"componentType":5126,
			"count":636,
			"type":"VEC2"
		},
		{
			"bufferView":3,
			"componentType":5123,
			"count":1188,
			"type":"SCALAR"
		},
		{
			"bufferView":4,
			"componentType":5126,
			"count":214,
			"max":[
				1.9102410078048706,
				7.440002918243408,
				1.174976110458374
			],
			"min":[
				-1.969274878501892,
				-1.4476990699768066,
				-2.7045395374298096
			],
			"type":"VEC3"
		},
		{
			"bufferView":5,
			"componentType":5126,
			"count":214,
			"type":"VEC3"
		},
		{
			"bufferView":6,
			"componentType":5126,
			"count":214,
			"type":"VEC2"
		},
		{
			"bufferView":7,
			"componentType":5123,
			"count":336,
			"type":"SCALAR"
		},
		{
			"bufferView":8,
			"componentType":5126,
			"count":32,
			"max":[
				0.5011637210845947,
				6.797980308532715,
				-0.2341010868549347
			],
			"min":[
				-0.560197651386261,
				5.507911682128906,
				-1.2954621315002441
			],
			"type":"VEC3"
		},
		{
			"bufferView":9,
			"componentType":5126,
			"count":32,
			"type":"VEC3"
		},
		{
			"bufferView":10,
			"componentType":5126,
			"count":32,
			"type":"VEC2"
		},
		{
			"bufferView":11,
			"componentType":5123,
			"count":48,
			"type":"SCALAR"
		},
		{
			"bufferView":12,
			"componentType":5126,
			"count":1173,
			"max":[
				0.8240970969200134,
				0.7030213475227356,
				3.726844549179077
			],
			"min":[
				-0.8981404304504395,
				-1.4251757860183716,
				-0.1825156807899475
			],
			"type":"VEC3"
		},
		{
			"bufferView":13,
			"componentType":5126,
			"count":1173,
			"type":"VEC3"
		},
		{
			"bufferView":14,
			"componentType":5126,
			"count":1173,
			"type":"VEC2"
		},
		{
			"bufferView":15,
			"componentType":5123,
			"count":2322,
			"type":"SCALAR"
		},
		{
			"bufferView":16,
			"componentType":5126,
			"count":151,
			"max":[
				0.7829926013946533,
				0.7020175457000732,
				3.705371379852295
			],
			"min":[
				-0.8244678974151611,
				-1.4251757860183716,
				-0.1825156807899475
			],
			"type":"VEC3"
		},
		{
			"bufferView":17,
			"componentType":5126,
			"count":151,
			"type":"VEC3"
		},
		{
			"bufferView":18,
			"componentType":5126,
			"count":151,
			"type":"VEC2"
		},
		{
			"bufferView":19,
			"componentType":5123,
			"count":444,
			"type":"SCALAR"
		},
		{
			"bufferView":20,
			"componentType":5126,
			"count":130,
			"max":[
				0.7504245042800903,
				0.6660560369491577,
				3.69700026512146
			],
			"min":[
				-0.8244678974151611,
				-1.4251757860183716,
				-0.1825156807899475
			],
			"type":"VEC3"
		},
		{
			"bufferView":21,
			"componentType":5126,
			"count":130,
			"type":"VEC3"
		},
		{
			"bufferView":22,
			"componentType":5126,
			"count":130,
			"type":"VEC2"
		},
		{
			"bufferView":23,
			"componentType":5123,
			"count":330,
			"type":"SCALAR"
		},
		{
			"bufferView":24,
			"componentType":5126,
			"count":256,
			"max":[
				8.664789199829102,
				-1.162316918373108,
				8.041403770446777
			],
			"min":[
				-8.640691757202148,
				-2.5258636474609375,
				-9.424539566040039
			],
			"type":"VEC3"
		},
		{
			"bufferView":25,
			"componentType":5126,
			"count":256,
			"type":"VEC3"
		},
		{
			"bufferView":26,
			"componentType":5126,
			"count":256,
			"type":"VEC2"
		},
		{
			"bufferView":27,
			"componentType":5123,
			"count":384,
			"type":"SCALAR"
		}
	],
	"bufferViews":[
		{
			"buffer":0,
			"byteLength":7632,
			"byteOffset":0,
			"target":34962
		},
		{
			"buffer":0,
			"byteLength":7632,
			"byteOffset":7632,
			"target":34962
		},
		{
			"buffer":0,
			"byteLength":5088,
			"byteOffset":15264,
			"target":34962
		},
		{
			"buffer":0,
			"byteLength":2376,
			"byteOffset":20352,
			"target":34963
		},
		{
			"buffer":0,
			"byteLength":2568,
			"byteOffset":22728,
			"target":34962
		},
		{
			"buffer":0,
			"byteLength":2568,
			"byteOffset":25296,
			"target":34962
		},
		{
			"buffer":0,
			"byteLength":1712,
			"byteOffset":27864,
			"target":34962
		},
		{
			"buffer":0,
			"byteLength":672,
			"byteOffset":29576,
			"target":34963
		},
		{
			"buffer":0,
			"byteLength":384,
			"byteOffset":30248,
			"target":34962
		},
		{
			"buffer":0,
			"byteLength":384,
			"byteOffset":30632,
			"target":34962
		},
		{
			"buffer":0,
			"byteLength":256,
			"byteOffset":31016,
			"target":34962
		},
		{
			"buffer":0,
			"byteLength":96,
			"byteOffset":31272,
			"target":34963
		},
		{
			"buffer":0,
			"byteLength":14076,
			"byteOffset":31368,
			"target":34962
		},
		{
			"buffer":0,
			"byteLength":14076,
			"byteOffset":45444,
			"target":34962
		},
		{
			"buffer":0,
			"byteLength":9384,
			"byteOffset":59520,
			"target":34962
		},
		{
			"buffer":0,
			"byteLength":4644,
			"byteOffset":68904,
			"target":34963
		},
		{
			"buffer":0,
			"byteLength":1812,
			"byteOffset":73548,
			"target":34962
		},
		{
			"buffer":0,
			"byteLength":1812,
			"byteOffset":75360,
			"target":34962
		},
		{
			"buffer":0,
			"byteLength":1208,
			"byteOffset":77172,
			"target":34962
		},
		{
			"buffer":0,
			"byteLength":888,
			"byteOffset":78380,
			"target":34963
		},
		{
			"buffer":0,
			"byteLength":1560,
			"byteOffset":79268,
			"target":34962
		},
		{
			"buffer":0,
			"byteLength":1560,
			"byteOffset":80828,
			"target":34962
		},
		{
			"buffer":0,
			"byteLength":1040,
			"byteOffset":82388,
			"target":34962
		},
		{
			"buffer":0,
			"byteLength":660,
			"byteOffset":83428,
			"target":34963
		},
		{
			"buffer":0,
			"byteLength":3072,
			"byteOffset":84088,
			"target":34962
		},
		{
			"buffer":0,
			"byteLength":3072,
			"byteOffset":87160,
			"target":34962
		},
		{
			"buffer":0,
			"byteLength":2048,
			"byteOffset":90232,
			"target":34962
		},
		{
			"buffer":0,
			"byteLength":768,
			"byteOffset":92280,
			"target":34963
		}
	],
	"buffers":[
		{
			"byteLength":93048,
			"uri":"islaFaro.bin"
		}
	]
}
