{
	"asset":{
		"generator":"Khronos glTF Blender I/O v3.6.27",
		"version":"2.0"
	},
	"extensionsUsed":[
		"KHR_materials_specular",
		"KHR_materials_ior"
	],
	"scene":0,
	"scenes":[
		{
			"name":"Scene",
			"nodes":[
				0
			]
		}
	],
	"nodes":[
		{
			"mesh":0,
			"name":"C\u00edrculo",
			"scale":[
				0.6267489790916443,
				0.6267489790916443,
				0.6267489790916443
			]
		}
	],
	"materials":[
		{
			"doubleSided":true,
			"extensions":{
				"KHR_materials_specular":{
					"specularColorFactor":[
						2.371357614441398,
						2.371357614441398,
						2.371357614441398
					]
				},
				"KHR_materials_ior":{
					"ior":1.4500000476837158
				}
			},
			"name":"Material.009",
			"pbrMetallicRoughness":{
				"baseColorTexture":{
					"index":0
				},
				"metallicFactor":0,
				"roughnessFactor":0.00917428731918335
			}
		},
		{
			"doubleSided":true,
			"extensions":{
				"KHR_materials_specular":{
					"specularColorFactor":[
						1.2400678094651378,
						1.2400678094651378,
						1.2400678094651378
					]
				},
				"KHR_materials_ior":{
					"ior":1.4500000476837158
				}
			},
			"name":"Material.010",
			"pbrMetallicRoughness":{
				"baseColorFactor":[
					0.2576805651187897,
					0.8000000715255737,
					0.2910762429237366,
					1
				],
				"metallicFactor":0,
				"roughnessFactor":0.23394495248794556
			}
		}
	],
	"meshes":[
		{
			"name":"Mesh",
			"primitives":[
				{
					"attributes":{
						"POSITION":0,
						"NORMAL":1,
						"TEXCOORD_0":2
					},
					"indices":3,
					"material":0
				},
				{
					"attributes":{
						"POSITION":4,
						"NORMAL":5,
						"TEXCOORD_0":6
					},
					"indices":7,
					"material":1
				}
			]
		}
	],
	"textures":[
		{
			"sampler":0,
			"source":0
		}
	],
	"images":[
		{
			"mimeType":"image/jpeg",
			"name":"1668002030598",
			"uri":"1668002030598.jpg"
		}
	],
	"accessors":[
		{
			"bufferView":0,
			"componentType":5126,
			"count":115,
			"max":[
				1.2793169021606445,
				1.0273116827011108,
				0.8201489448547363
			],
			"min":[
				1.0668617486953735,
				-0.3162108361721039,
				-0.3626441955566406
			],
			"type":"VEC3"
		},
		{
			"bufferView":1,
			"componentType":5126,
			"count":115,
			"type":"VEC3"
		},
		{
			"bufferView":2,
			"componentType":5126,
			"count":115,
			"type":"VEC2"
		},
		{
			"bufferView":3,
			"componentType":5123,
			"count":480,
			"type":"SCALAR"
		},
		{
			"bufferView":4,
			"componentType":5126,
			"count":2126,
			"max":[
				1.2793169021606445,
				1.3360841274261475,
				1.3804115056991577
			],
			"min":[
				-1.2419480085372925,
				-1.1087167263031006,
				-2.057103157043457
			],
			"type":"VEC3"
		},
		{
			"bufferView":5,
			"componentType":5126,
			"count":2126,
			"type":"VEC3"
		},
		{
			"bufferView":6,
			"componentType":5126,
			"count":2126,
			"type":"VEC2"
		},
		{
			"bufferView":7,
			"componentType":5123,
			"count":10704,
			"type":"SCALAR"
		}
	],
	"bufferViews":[
		{
			"buffer":0,
			"byteLength":1380,
			"byteOffset":0,
			"target":34962
		},
		{
			"buffer":0,
			"byteLength":1380,
			"byteOffset":1380,
			"target":34962
		},
		{
			"buffer":0,
			"byteLength":920,
			"byteOffset":2760,
			"target":34962
		},
		{
			"buffer":0,
			"byteLength":960,
			"byteOffset":3680,
			"target":34963
		},
		{
			"buffer":0,
			"byteLength":25512,
			"byteOffset":4640,
			"target":34962
		},
		{
			"buffer":0,
			"byteLength":25512,
			"byteOffset":30152,
			"target":34962
		},
		{
			"buffer":0,
			"byteLength":17008,
			"byteOffset":55664,
			"target":34962
		},
		{
			"buffer":0,
			"byteLength":21408,
			"byteOffset":72672,
			"target":34963
		}
	],
	"samplers":[
		{
			"magFilter":9729,
			"minFilter":9987
		}
	],
	"buffers":[
		{
			"byteLength":94080,
			"uri":"taza.bin"
		}
	]
}
